<svg xmlns="http://www.w3.org/2000/svg" style="display: none;"><symbol id="icon-man-glasses" viewBox="0 0 48 48"><title>man glasses</title><g class="nc-icon-wrapper" stroke="none"><rect x="18" y="24" fill-rule="evenodd" clip-rule="evenodd" fill="#EAC3A2" width="12" height="15"></rect> <path fill-rule="evenodd" clip-rule="evenodd" fill="#F1D9C5" d="M35,12v8c0,6.0650005-4.9349995,11-11,11s-11-4.9349995-11-11v-8 H35z"></path> <path fill-rule="evenodd" clip-rule="evenodd" fill="#FFFFFF" d="M46,44.0092545 c0-1.6619644-1.2289314-3.5469093-2.7504997-4.2125969L30,34c-1.6879997,1.25-3.7539997,2-6,2s-4.3120003-0.75-5.9820004-2 L4.753592,39.7966576C3.232825,40.4612465,2,42.3496704,2,44.0092545v2.9878159C2,47.550972,2.4498155,48,3.001672,48h41.9966583 C45.5515404,48,46,47.5621185,46,46.9970703V44.0092545z"></path> <path fill-rule="evenodd" clip-rule="evenodd" fill="#87613E" d="M13,11.9989014 c0-3.3131027,2.5352898-6.9043617,5.6539803-8.0181808l7.4057007-2.6448898 c0.5193291-0.1854706,1.1393986,0.0623283,1.3841782,0.551899L29,5c3.3137093,0,6,2.6930313,6,6v6c0-2.7614212-2.2385788-5-5-5H18 c-2.7614202,0-5,2.2385788-5,5V11.9989014z"></path> <polygon fill-rule="evenodd" clip-rule="evenodd" fill="#191919" points="21,48 23,42 25,42 27,48 "></polygon> <path fill-rule="evenodd" clip-rule="evenodd" fill="#191919" d="M23,42h2l2.184679-2.1846504 c0.4303093-0.4303055,0.3797398-1.1419716-0.1070938-1.5071068l-2.4775753-1.8582268 c-0.3555603-0.266674-0.8444595-0.266674-1.2000198,0l-2.4775753,1.8582268 c-0.4868336,0.3651352-0.5374031,1.0768013-0.1070938,1.5071068L23,42z"></path> <path fill-rule="evenodd" clip-rule="evenodd" fill="#444444" d="M20,48l-1.9820004-14L4.753592,39.7966576 C3.232825,40.4612465,2,42.3496704,2,44.0092545v2.9878159C2,47.550972,2.4509254,48,2.9947712,48H20z"></path> <path fill-rule="evenodd" clip-rule="evenodd" fill="#444444" d="M28,48l1.9820004-14l13.2644062,5.7966576 C44.7671738,40.4612465,46,42.3496704,46,44.0092545v2.9878159C46,47.550972,45.5490761,48,45.0052299,48H28z"></path> <path fill-rule="evenodd" clip-rule="evenodd" fill="#444444" d="M36,17v1c0,2.7614231-2.238575,5-5,5h-1 c-2.4190006,0-4.4360008-1.7180004-4.8990002-4h-0.0009995C25,18.4120007,24.552,18,24,18s-1.0200005,0.4510002-1.1000004,1 h-0.0009995C22.4360008,21.2819996,20.4190006,23,18,23h-1c-2.7614241,0-5-2.2385769-5-5v-1c0-1.1045694,0.8954306-2,2-2h20 C35.1045685,15,36,15.8954306,36,17z"></path></g></symbol></svg>